<?xml version="1.0" encoding="UTF-8" standalone="no"?>
<!-- Created with Inkscape (http://www.inkscape.org/) -->

<svg
   xmlns:dc="http://purl.org/dc/elements/1.1/"
   xmlns:cc="http://creativecommons.org/ns#"
   xmlns:rdf="http://www.w3.org/1999/02/22-rdf-syntax-ns#"
   xmlns:svg="http://www.w3.org/2000/svg"
   xmlns="http://www.w3.org/2000/svg"
   xmlns:sodipodi="http://sodipodi.sourceforge.net/DTD/sodipodi-0.dtd"
   xmlns:inkscape="http://www.inkscape.org/namespaces/inkscape"
   width="256"
   height="256"
   viewBox="0 0 67.733332 67.733335"
   version="1.1"
   id="svg8"
   inkscape:export-filename="C:\Users\lchen\AngularProjects\guru\src\assets\image\dices\white-blue-0.png"
   inkscape:export-xdpi="96"
   inkscape:export-ydpi="96"
   inkscape:version="0.92.4 (5da689c313, 2019-01-14)"
   sodipodi:docname="green-bg-white-dots-0.svg">
  <defs
     id="defs2">
    <linearGradient
       id="SVGID_1_"
       gradientUnits="userSpaceOnUse"
       x1="79.693001"
       x2="268.42401"
       y1="248.395"
       y2="59.664001">
      <stop
         offset="0"
         stop-color="#107eff"
         id="stop2" />
      <stop
         offset="1"
         stop-color="#8f16ff"
         id="stop4" />
    </linearGradient>
  </defs>
  <sodipodi:namedview
     id="base"
     pagecolor="#ffffff"
     bordercolor="#666666"
     borderopacity="1.0"
     inkscape:pageopacity="0.0"
     inkscape:pageshadow="2"
     inkscape:zoom="2.8"
     inkscape:cx="251.64839"
     inkscape:cy="167.27636"
     inkscape:document-units="mm"
     inkscape:current-layer="g4579"
     showgrid="false"
     units="px"
     inkscape:window-width="2037"
     inkscape:window-height="1397"
     inkscape:window-x="990"
     inkscape:window-y="241"
     inkscape:window-maximized="0" />
  <metadata
     id="metadata5">
    <rdf:RDF>
      <cc:Work
         rdf:about="">
        <dc:format>image/svg+xml</dc:format>
        <dc:type
           rdf:resource="http://purl.org/dc/dcmitype/StillImage" />
        <dc:title />
      </cc:Work>
    </rdf:RDF>
  </metadata>
  <g
     inkscape:label="Layer 1"
     inkscape:groupmode="layer"
     id="layer1"
     transform="translate(0,-229.26665)">
    <g
       id="g4563">
      <g
         id="g4571">
        <g
           id="g4579">
          <rect
             ry="0"
             y="229.28555"
             x="0.094494045"
             height="68.035713"
             width="67.941216"
             id="rect4555"
             style="opacity:1;fill:#f5f5f5;fill-opacity:1;stroke:none;stroke-width:0.212;stroke-linecap:round;stroke-linejoin:round;stroke-miterlimit:4;stroke-dasharray:none;stroke-dashoffset:0;stroke-opacity:1" />
          <g
             transform="matrix(0.15744769,0,0,0.15744769,8.132862,238.70345)"
             id="g9"
             style="stroke:none;stroke-opacity:1;fill:#ff0600;fill-opacity:1" />
          <g
             transform="matrix(0.05447537,0,0,0.05447537,19.599677,250.07587)"
             id="g24"
             style="fill:#0000ff;fill-opacity:1;stroke:none;stroke-opacity:1">
            <g
               id="g22"
               style="fill:#0000ff;fill-opacity:1;stroke:none;stroke-opacity:1">
              <path
                 inkscape:connector-curvature="0"
                 d="M 510.944,151.528 485.775,101.2 C 474.925,79.488 453.106,66 428.83,66 c -19.785,0 -38.692,9.384 -50.669,25.125 l -28.248,31.787 c -7.529,-10.706 -18.573,-18.648 -31.296,-22.277 l -50.53,-14.44 C 229.405,75.142 191.584,45.348 164.32,4.453 c -2.444,-3.666 -7,-5.3 -11.218,-4.024 C 148.885,1.706 146,5.594 146,10 v 53.89 c 0,25.045 3.751,49.743 11.161,73.574 -7.766,1.93 -15.597,3.545 -23.391,4.805 C 118.5,144.745 102.943,146 87.53,146 H 10 c -3.635,0 -6.984,1.973 -8.746,5.153 -1.762,3.18 -1.66,7.065 0.267,10.147 l 59.88,95.811 c 25.586,40.931 69.65,66.616 117.922,68.732 L 83.141,434.72 c -14.82,15.153 -9.668,40.513 9.908,48.663 l 52.953,26.153 c 0.235,0.116 0.474,0.223 0.717,0.32 15.315,6.12 32.773,-1.31 38.954,-16.608 L 222.625,406 H 296 c 84.561,0 156,-68.691 156,-150 v -60 c 0,-16.542 13.458,-30 30,-30 h 20 c 3.466,0 6.685,-1.794 8.507,-4.743 1.822,-2.948 1.987,-6.63 0.437,-9.729 z M 166,39.801 c 27.558,32.281 61.653,55.641 96.592,65.625 l 50.535,14.441 c 9.855,2.812 18.161,9.587 22.925,18.644 l -26.581,29.911 -46.696,-28.017 c -20.226,-12.135 -44.298,-16.962 -68.185,-13.096 -7.506,1.217 -12.297,2.744 -18.192,4.653 C 169.497,109.92 166,87.067 166,63.89 Z M 482,146 c -27.57,0 -50,22.43 -50,50 v 60 c 0,70.467 -62.28,130 -136,130 h -80 c -28.491,0 -54.101,15.829 -66.834,41.308 l -2.11,4.22 c -2.47,4.94 -0.467,10.946 4.473,13.416 4.94,2.47 10.947,0.466 13.416,-4.473 1.164,-1.55 8.746,-24.079 34.945,-32.074 l -32.667,77.133 c -0.027,0.063 -0.053,0.125 -0.078,0.189 -1.984,4.965 -7.577,7.54 -12.697,5.681 -56.29,-27.79 -52.898,-26.157 -53.574,-26.426 -6.682,-2.672 -8.44,-11.266 -3.351,-16.354 0.345,-0.346 21.232,-24.014 108.482,-122.772 36.682,-1.63 71.003,-16.714 97.067,-42.778 3.905,-3.905 3.905,-10.237 0,-14.143 -3.905,-3.906 -10.237,-3.905 -14.143,0 C 244.416,313.443 191.575,304.994 185.69,306 141.769,306 101.645,283.761 78.36,246.51 l -6.394,-10.231 7.219,2.817 c 45.784,17.864 102.954,11.499 142.362,-14.775 4.595,-3.064 5.836,-9.272 2.773,-13.868 -3.064,-4.595 -9.272,-5.837 -13.868,-2.773 -34.614,23.079 -84.445,28.216 -123.998,12.784 L 54.221,207.889 28.043,166 H 87.53 c 16.482,0 33.116,-1.342 49.437,-3.988 33.624,-5.436 47.75,-12.842 60.822,-14.96 18.998,-3.075 38.4,0.725 54.698,10.503 l 78.368,47.019 c 4.734,2.843 10.878,1.308 13.72,-3.428 2.842,-4.735 1.307,-10.878 -3.428,-13.72 l -14.224,-8.534 C 397.18,99.815 393.425,104.104 393.901,103.471 402.105,92.531 415.163,86 428.83,86 c 16.649,0 31.614,9.25 39.056,24.143 L 485.818,146 Z"
                 id="path20"
                 style="fill:#0000ff;fill-opacity:1;stroke:none;stroke-opacity:1" />
            </g>
          </g>
          <ellipse
             style="opacity:1;fill:#0000ff;fill-opacity:1;stroke:none;stroke-width:0.76499999;stroke-linecap:round;stroke-linejoin:round;stroke-miterlimit:4;stroke-dasharray:none;stroke-dashoffset:0;stroke-opacity:1"
             id="path849"
             cx="43.136528"
             cy="256.27304"
             rx="0.70870537"
             ry="0.75595242" />
        </g>
      </g>
    </g>
  </g>
</svg>
